<?xml version="1.0" encoding="UTF-8" standalone="no"?>
<!DOCTYPE svg PUBLIC "-//W3C//DTD SVG 1.1//EN"
 "http://www.w3.org/Graphics/SVG/1.1/DTD/svg11.dtd">
<!-- Generated by graphviz version 2.26.0 (20091210.2329)
 -->
<!-- Title: models_diagram Pages: 1 -->
<svg width="1714pt" height="424pt"
 viewBox="0.00 0.00 1714.00 424.00" xmlns="http://www.w3.org/2000/svg" xmlns:xlink="http://www.w3.org/1999/xlink">
<g id="graph1" class="graph" transform="scale(1 1) rotate(0) translate(4 420)">
<title>models_diagram</title>
<polygon fill="white" stroke="white" points="-4,5 -4,-420 1711,-420 1711,5 -4,5"/>
<!-- _diagram_info -->
<g id="node1" class="node"><title>_diagram_info</title>
<text text-anchor="start" x="7.5" y="-304.4" font-family="Times,serif" font-size="14.00">Models diagram</text>
<text text-anchor="start" x="7.5" y="-289.4" font-family="Times,serif" font-size="14.00">Date: Jan 10 2010 &#45; 20:01</text>
<text text-anchor="start" x="7.5" y="-274.4" font-family="Times,serif" font-size="14.00">Migration version: 20100110170722</text>
<text text-anchor="start" x="7.5" y="-259.4" font-family="Times,serif" font-size="14.00">Generated by RailRoad 0.5.0</text>
</g>
<!-- Account -->
<g id="node2" class="node"><title>Account</title>
<polyline fill="none" stroke="black" points="261,-0.5 395,-0.5 "/>
<path fill="none" stroke="black" d="M395,-0.5C401,-0.5 407,-6.5 407,-12.5"/>
<polyline fill="none" stroke="black" points="407,-12.5 407,-109.5 "/>
<path fill="none" stroke="black" d="M407,-109.5C407,-115.5 401,-121.5 395,-121.5"/>
<polyline fill="none" stroke="black" points="395,-121.5 261,-121.5 "/>
<path fill="none" stroke="black" d="M261,-121.5C255,-121.5 249,-115.5 249,-109.5"/>
<polyline fill="none" stroke="black" points="249,-109.5 249,-12.5 "/>
<path fill="none" stroke="black" d="M249,-12.5C249,-6.5 255,-0.5 261,-0.5"/>
<text text-anchor="middle" x="328" y="-104.9" font-family="Times,serif" font-size="14.00">Account</text>
<polyline fill="none" stroke="black" points="249,-98.5 407,-98.5 "/>
<text text-anchor="start" x="257" y="-81.9" font-family="Times,serif" font-size="14.00">account_number :integer</text>
<text text-anchor="start" x="257" y="-66.9" font-family="Times,serif" font-size="14.00">iban :string</text>
<text text-anchor="start" x="257" y="-51.9" font-family="Times,serif" font-size="14.00">bank_code :string</text>
<text text-anchor="start" x="257" y="-36.9" font-family="Times,serif" font-size="14.00">bic :string</text>
<text text-anchor="start" x="257" y="-21.9" font-family="Times,serif" font-size="14.00">created_at :datetime</text>
<text text-anchor="start" x="257" y="-6.9" font-family="Times,serif" font-size="14.00">updated_at :datetime</text>
</g>
<!-- Address -->
<g id="node3" class="node"><title>Address</title>
<polyline fill="none" stroke="black" points="443.5,-219 560.5,-219 "/>
<path fill="none" stroke="black" d="M560.5,-219C566.5,-219 572.5,-225 572.5,-231"/>
<polyline fill="none" stroke="black" points="572.5,-231 572.5,-343 "/>
<path fill="none" stroke="black" d="M572.5,-343C572.5,-349 566.5,-355 560.5,-355"/>
<polyline fill="none" stroke="black" points="560.5,-355 443.5,-355 "/>
<path fill="none" stroke="black" d="M443.5,-355C437.5,-355 431.5,-349 431.5,-343"/>
<polyline fill="none" stroke="black" points="431.5,-343 431.5,-231 "/>
<path fill="none" stroke="black" d="M431.5,-231C431.5,-225 437.5,-219 443.5,-219"/>
<text text-anchor="middle" x="502" y="-338.4" font-family="Times,serif" font-size="14.00">Address</text>
<polyline fill="none" stroke="black" points="431.5,-332 572.5,-332 "/>
<text text-anchor="start" x="439.5" y="-315.4" font-family="Times,serif" font-size="14.00">street :string</text>
<text text-anchor="start" x="439.5" y="-300.4" font-family="Times,serif" font-size="14.00">street_addition :string</text>
<text text-anchor="start" x="439.5" y="-285.4" font-family="Times,serif" font-size="14.00">addition :string</text>
<text text-anchor="start" x="439.5" y="-270.4" font-family="Times,serif" font-size="14.00">postcode :string</text>
<text text-anchor="start" x="439.5" y="-255.4" font-family="Times,serif" font-size="14.00">city :string</text>
<text text-anchor="start" x="439.5" y="-240.4" font-family="Times,serif" font-size="14.00">created_at :datetime</text>
<text text-anchor="start" x="439.5" y="-225.4" font-family="Times,serif" font-size="14.00">updated_at :datetime</text>
</g>
<!-- Bill -->
<g id="node4" class="node"><title>Bill</title>
<polyline fill="none" stroke="black" points="601.5,-249 712.5,-249 "/>
<path fill="none" stroke="black" d="M712.5,-249C718.5,-249 724.5,-255 724.5,-261"/>
<polyline fill="none" stroke="black" points="724.5,-261 724.5,-313 "/>
<path fill="none" stroke="black" d="M724.5,-313C724.5,-319 718.5,-325 712.5,-325"/>
<polyline fill="none" stroke="black" points="712.5,-325 601.5,-325 "/>
<path fill="none" stroke="black" d="M601.5,-325C595.5,-325 589.5,-319 589.5,-313"/>
<polyline fill="none" stroke="black" points="589.5,-313 589.5,-261 "/>
<path fill="none" stroke="black" d="M589.5,-261C589.5,-255 595.5,-249 601.5,-249"/>
<text text-anchor="middle" x="657" y="-308.4" font-family="Times,serif" font-size="14.00">Bill</text>
<polyline fill="none" stroke="black" points="589.5,-302 724.5,-302 "/>
<text text-anchor="start" x="597.5" y="-285.4" font-family="Times,serif" font-size="14.00">bill_number :string</text>
<text text-anchor="start" x="597.5" y="-270.4" font-family="Times,serif" font-size="14.00">created_at :datetime</text>
<text text-anchor="start" x="597.5" y="-255.4" font-family="Times,serif" font-size="14.00">updated_at :datetime</text>
</g>
<!-- Company -->
<g id="node5" class="node"><title>Company</title>
<polyline fill="none" stroke="black" points="753.5,-241.5 864.5,-241.5 "/>
<path fill="none" stroke="black" d="M864.5,-241.5C870.5,-241.5 876.5,-247.5 876.5,-253.5"/>
<polyline fill="none" stroke="black" points="876.5,-253.5 876.5,-320.5 "/>
<path fill="none" stroke="black" d="M876.5,-320.5C876.5,-326.5 870.5,-332.5 864.5,-332.5"/>
<polyline fill="none" stroke="black" points="864.5,-332.5 753.5,-332.5 "/>
<path fill="none" stroke="black" d="M753.5,-332.5C747.5,-332.5 741.5,-326.5 741.5,-320.5"/>
<polyline fill="none" stroke="black" points="741.5,-320.5 741.5,-253.5 "/>
<path fill="none" stroke="black" d="M741.5,-253.5C741.5,-247.5 747.5,-241.5 753.5,-241.5"/>
<text text-anchor="middle" x="809" y="-315.9" font-family="Times,serif" font-size="14.00">Company</text>
<polyline fill="none" stroke="black" points="741.5,-309.5 876.5,-309.5 "/>
<text text-anchor="start" x="749.5" y="-292.9" font-family="Times,serif" font-size="14.00">name :string</text>
<text text-anchor="start" x="749.5" y="-277.9" font-family="Times,serif" font-size="14.00">vatid :string</text>
<text text-anchor="start" x="749.5" y="-262.9" font-family="Times,serif" font-size="14.00">created_at :datetime</text>
<text text-anchor="start" x="749.5" y="-247.9" font-family="Times,serif" font-size="14.00">updated_at :datetime</text>
</g>
<!-- Customer -->
<g id="node6" class="node"><title>Customer</title>
<polyline fill="none" stroke="black" points="905.5,-226.5 1016.5,-226.5 "/>
<path fill="none" stroke="black" d="M1016.5,-226.5C1022.5,-226.5 1028.5,-232.5 1028.5,-238.5"/>
<polyline fill="none" stroke="black" points="1028.5,-238.5 1028.5,-335.5 "/>
<path fill="none" stroke="black" d="M1028.5,-335.5C1028.5,-341.5 1022.5,-347.5 1016.5,-347.5"/>
<polyline fill="none" stroke="black" points="1016.5,-347.5 905.5,-347.5 "/>
<path fill="none" stroke="black" d="M905.5,-347.5C899.5,-347.5 893.5,-341.5 893.5,-335.5"/>
<polyline fill="none" stroke="black" points="893.5,-335.5 893.5,-238.5 "/>
<path fill="none" stroke="black" d="M893.5,-238.5C893.5,-232.5 899.5,-226.5 905.5,-226.5"/>
<text text-anchor="middle" x="961" y="-330.9" font-family="Times,serif" font-size="14.00">Customer</text>
<polyline fill="none" stroke="black" points="893.5,-324.5 1028.5,-324.5 "/>
<text text-anchor="start" x="901.5" y="-307.9" font-family="Times,serif" font-size="14.00">name :string</text>
<text text-anchor="start" x="901.5" y="-292.9" font-family="Times,serif" font-size="14.00">lastname :string</text>
<text text-anchor="start" x="901.5" y="-277.9" font-family="Times,serif" font-size="14.00">title :string</text>
<text text-anchor="start" x="901.5" y="-262.9" font-family="Times,serif" font-size="14.00">phone :string</text>
<text text-anchor="start" x="901.5" y="-247.9" font-family="Times,serif" font-size="14.00">created_at :datetime</text>
<text text-anchor="start" x="901.5" y="-232.9" font-family="Times,serif" font-size="14.00">updated_at :datetime</text>
</g>
<!-- Expense -->
<g id="node7" class="node"><title>Expense</title>
<polyline fill="none" stroke="black" points="1057.5,-219 1168.5,-219 "/>
<path fill="none" stroke="black" d="M1168.5,-219C1174.5,-219 1180.5,-225 1180.5,-231"/>
<polyline fill="none" stroke="black" points="1180.5,-231 1180.5,-343 "/>
<path fill="none" stroke="black" d="M1180.5,-343C1180.5,-349 1174.5,-355 1168.5,-355"/>
<polyline fill="none" stroke="black" points="1168.5,-355 1057.5,-355 "/>
<path fill="none" stroke="black" d="M1057.5,-355C1051.5,-355 1045.5,-349 1045.5,-343"/>
<polyline fill="none" stroke="black" points="1045.5,-343 1045.5,-231 "/>
<path fill="none" stroke="black" d="M1045.5,-231C1045.5,-225 1051.5,-219 1057.5,-219"/>
<text text-anchor="middle" x="1113" y="-338.4" font-family="Times,serif" font-size="14.00">Expense</text>
<polyline fill="none" stroke="black" points="1045.5,-332 1180.5,-332 "/>
<text text-anchor="start" x="1053.5" y="-315.4" font-family="Times,serif" font-size="14.00">name :string</text>
<text text-anchor="start" x="1053.5" y="-300.4" font-family="Times,serif" font-size="14.00">hours :float</text>
<text text-anchor="start" x="1053.5" y="-285.4" font-family="Times,serif" font-size="14.00">rate :float</text>
<text text-anchor="start" x="1053.5" y="-270.4" font-family="Times,serif" font-size="14.00">fixcosts :float</text>
<text text-anchor="start" x="1053.5" y="-255.4" font-family="Times,serif" font-size="14.00">remark :string</text>
<text text-anchor="start" x="1053.5" y="-240.4" font-family="Times,serif" font-size="14.00">created_at :datetime</text>
<text text-anchor="start" x="1053.5" y="-225.4" font-family="Times,serif" font-size="14.00">updated_at :datetime</text>
</g>
<!-- Offer -->
<g id="node8" class="node"><title>Offer</title>
<polyline fill="none" stroke="black" points="1209.5,-226.5 1320.5,-226.5 "/>
<path fill="none" stroke="black" d="M1320.5,-226.5C1326.5,-226.5 1332.5,-232.5 1332.5,-238.5"/>
<polyline fill="none" stroke="black" points="1332.5,-238.5 1332.5,-335.5 "/>
<path fill="none" stroke="black" d="M1332.5,-335.5C1332.5,-341.5 1326.5,-347.5 1320.5,-347.5"/>
<polyline fill="none" stroke="black" points="1320.5,-347.5 1209.5,-347.5 "/>
<path fill="none" stroke="black" d="M1209.5,-347.5C1203.5,-347.5 1197.5,-341.5 1197.5,-335.5"/>
<polyline fill="none" stroke="black" points="1197.5,-335.5 1197.5,-238.5 "/>
<path fill="none" stroke="black" d="M1197.5,-238.5C1197.5,-232.5 1203.5,-226.5 1209.5,-226.5"/>
<text text-anchor="middle" x="1265" y="-330.9" font-family="Times,serif" font-size="14.00">Offer</text>
<polyline fill="none" stroke="black" points="1197.5,-324.5 1332.5,-324.5 "/>
<text text-anchor="start" x="1205.5" y="-307.9" font-family="Times,serif" font-size="14.00">number :integer</text>
<text text-anchor="start" x="1205.5" y="-292.9" font-family="Times,serif" font-size="14.00">content :text</text>
<text text-anchor="start" x="1205.5" y="-277.9" font-family="Times,serif" font-size="14.00">addition :text</text>
<text text-anchor="start" x="1205.5" y="-262.9" font-family="Times,serif" font-size="14.00">taxrate :integer</text>
<text text-anchor="start" x="1205.5" y="-247.9" font-family="Times,serif" font-size="14.00">created_at :datetime</text>
<text text-anchor="start" x="1205.5" y="-232.9" font-family="Times,serif" font-size="14.00">updated_at :datetime</text>
</g>
<!-- Transaction -->
<g id="node9" class="node"><title>Transaction</title>
<polyline fill="none" stroke="black" points="1361.5,-249 1472.5,-249 "/>
<path fill="none" stroke="black" d="M1472.5,-249C1478.5,-249 1484.5,-255 1484.5,-261"/>
<polyline fill="none" stroke="black" points="1484.5,-261 1484.5,-313 "/>
<path fill="none" stroke="black" d="M1484.5,-313C1484.5,-319 1478.5,-325 1472.5,-325"/>
<polyline fill="none" stroke="black" points="1472.5,-325 1361.5,-325 "/>
<path fill="none" stroke="black" d="M1361.5,-325C1355.5,-325 1349.5,-319 1349.5,-313"/>
<polyline fill="none" stroke="black" points="1349.5,-313 1349.5,-261 "/>
<path fill="none" stroke="black" d="M1349.5,-261C1349.5,-255 1355.5,-249 1361.5,-249"/>
<text text-anchor="middle" x="1417" y="-308.4" font-family="Times,serif" font-size="14.00">Transaction</text>
<polyline fill="none" stroke="black" points="1349.5,-302 1484.5,-302 "/>
<text text-anchor="start" x="1357.5" y="-285.4" font-family="Times,serif" font-size="14.00">valuta :date</text>
<text text-anchor="start" x="1357.5" y="-270.4" font-family="Times,serif" font-size="14.00">created_at :datetime</text>
<text text-anchor="start" x="1357.5" y="-255.4" font-family="Times,serif" font-size="14.00">updated_at :datetime</text>
</g>
<!-- User -->
<g id="node10" class="node"><title>User</title>
<polyline fill="none" stroke="black" points="253.5,-159 402.5,-159 "/>
<path fill="none" stroke="black" d="M402.5,-159C408.5,-159 414.5,-165 414.5,-171"/>
<polyline fill="none" stroke="black" points="414.5,-171 414.5,-403 "/>
<path fill="none" stroke="black" d="M414.5,-403C414.5,-409 408.5,-415 402.5,-415"/>
<polyline fill="none" stroke="black" points="402.5,-415 253.5,-415 "/>
<path fill="none" stroke="black" d="M253.5,-415C247.5,-415 241.5,-409 241.5,-403"/>
<polyline fill="none" stroke="black" points="241.5,-403 241.5,-171 "/>
<path fill="none" stroke="black" d="M241.5,-171C241.5,-165 247.5,-159 253.5,-159"/>
<text text-anchor="middle" x="328" y="-398.4" font-family="Times,serif" font-size="14.00">User</text>
<polyline fill="none" stroke="black" points="241.5,-392 414.5,-392 "/>
<text text-anchor="start" x="249.5" y="-375.4" font-family="Times,serif" font-size="14.00">login :string</text>
<text text-anchor="start" x="249.5" y="-360.4" font-family="Times,serif" font-size="14.00">email :string</text>
<text text-anchor="start" x="249.5" y="-345.4" font-family="Times,serif" font-size="14.00">name :string</text>
<text text-anchor="start" x="249.5" y="-330.4" font-family="Times,serif" font-size="14.00">crypted_password :string</text>
<text text-anchor="start" x="249.5" y="-315.4" font-family="Times,serif" font-size="14.00">password_salt :string</text>
<text text-anchor="start" x="249.5" y="-300.4" font-family="Times,serif" font-size="14.00">persistence_token :string</text>
<text text-anchor="start" x="249.5" y="-285.4" font-family="Times,serif" font-size="14.00">single_access_token :string</text>
<text text-anchor="start" x="249.5" y="-270.4" font-family="Times,serif" font-size="14.00">perishable_token :string</text>
<text text-anchor="start" x="249.5" y="-255.4" font-family="Times,serif" font-size="14.00">last_request_at :datetime</text>
<text text-anchor="start" x="249.5" y="-240.4" font-family="Times,serif" font-size="14.00">current_login_at :datetime</text>
<text text-anchor="start" x="249.5" y="-225.4" font-family="Times,serif" font-size="14.00">last_login_at :datetime</text>
<text text-anchor="start" x="249.5" y="-210.4" font-family="Times,serif" font-size="14.00">current_login_ip :string</text>
<text text-anchor="start" x="249.5" y="-195.4" font-family="Times,serif" font-size="14.00">last_login_ip :string</text>
<text text-anchor="start" x="249.5" y="-180.4" font-family="Times,serif" font-size="14.00">created_at :datetime</text>
<text text-anchor="start" x="249.5" y="-165.4" font-family="Times,serif" font-size="14.00">updated_at :datetime</text>
</g>
<!-- User&#45;&gt;Account -->
<g id="edge2" class="edge"><title>User&#45;&gt;Account</title>
<path fill="none" stroke="black" d="M328,-150.722C328,-143.671 328,-136.746 328,-130.064"/>
<ellipse fill="none" stroke="black" cx="328" cy="-154.812" rx="4" ry="4"/>
<ellipse fill="black" stroke="black" cx="328" cy="-125.739" rx="4" ry="4"/>
</g>
<!-- UserSession -->
<g id="node11" class="node"><title>UserSession</title>
<polygon fill="none" stroke="black" points="1560.5,-38 1560.5,-84 1647.5,-84 1647.5,-38 1560.5,-38"/>
<text text-anchor="middle" x="1604" y="-67.4" font-family="Times,serif" font-size="14.00">UserSession</text>
<polyline fill="none" stroke="black" points="1560.5,-61 1647.5,-61 "/>
<text text-anchor="middle" x="1604" y="-44.4" font-family="Times,serif" font-size="14.00"> </text>
</g>
<!-- Authlogic::Session::Base -->
<g id="node13" class="node"><title>Authlogic::Session::Base</title>
<ellipse fill="none" stroke="black" cx="1604" cy="-287" rx="102.19" ry="18"/>
<text text-anchor="middle" x="1604" y="-281.9" font-family="Times,serif" font-size="14.00">Authlogic::Session::Base</text>
</g>
<!-- Authlogic::Session::Base&#45;&gt;UserSession -->
<g id="edge4" class="edge"><title>Authlogic::Session::Base&#45;&gt;UserSession</title>
<path fill="none" stroke="black" d="M1604,-268.888C1604,-228.142 1604,-129.309 1604,-84.1741"/>
</g>
</g>
</svg>
